<svg width="86" height="26" viewBox="0 0 86 26" fill="none" xmlns="http://www.w3.org/2000/svg">
<path d="M15.4911 7.95573C16.7351 7.95573 17.8458 8.26584 18.8233 8.88629C19.8096 9.49768 20.5827 10.366 21.1425 11.4914C21.6845 12.5725 21.9556 13.8441 21.9556 15.3061C21.9556 16.724 21.6845 17.9911 21.1425 19.1078C20.6005 20.2242 19.8363 21.0971 18.85 21.7261C17.8547 22.3643 16.7351 22.6832 15.4911 22.6832C14.5847 22.6832 13.7317 22.4971 12.932 22.125C12.1322 21.7529 11.448 21.23 10.8793 20.5566V22.3508H6.24091V3.31689H10.8793V10.0691C11.448 9.3957 12.1322 8.87723 12.932 8.51392C13.7317 8.1418 14.5847 7.95573 15.4911 7.95573ZM14.1049 18.8418C14.7624 18.8418 15.3489 18.6913 15.8643 18.39C16.3797 18.0887 16.784 17.6678 17.0772 17.1273C17.3705 16.5955 17.5171 15.9886 17.5171 15.3061C17.5171 14.6415 17.3705 14.039 17.0772 13.4984C16.784 12.9579 16.3797 12.537 15.8643 12.2357C15.3489 11.9344 14.7624 11.7839 14.1049 11.7839C13.4829 11.7839 12.9275 11.9344 12.4388 12.2357C11.9501 12.5281 11.568 12.9402 11.2925 13.4719C11.0171 14.0125 10.8793 14.6239 10.8793 15.3061C10.8793 15.9886 11.0171 16.6 11.2925 17.1405C11.568 17.6722 11.9501 18.0887 12.4388 18.39C12.9275 18.6913 13.4829 18.8418 14.1049 18.8418Z" fill="black"/>
<path d="M22.5905 22.3508V3.31689H27.229V22.3508H22.5905Z" fill="black"/>
<path d="M28.5439 22.3505V8.27441H33.1557V22.3505H28.5439Z" fill="black"/>
<path d="M43.1741 7.95581C44.1604 7.95581 45.0489 8.18625 45.8398 8.64712C46.6305 9.09891 47.2527 9.73702 47.7058 10.5609C48.1412 11.3939 48.3589 12.3377 48.3589 13.3923V22.3508H43.9338V14.4291C43.9338 13.915 43.8316 13.4588 43.6272 13.0599C43.4318 12.6523 43.152 12.3377 42.7876 12.1161C42.432 11.8948 42.0145 11.784 41.5347 11.784C41.0813 11.784 40.6638 11.8948 40.2818 12.1161C39.8997 12.3289 39.6019 12.6214 39.3886 12.9935C39.1665 13.348 39.0554 13.7645 39.0554 14.243L39.0289 22.3508H34.4171V8.27474H39.0289V9.88312C39.4643 9.28056 40.0461 8.81087 40.7749 8.47429C41.5035 8.12864 42.3033 7.95581 43.1741 7.95581Z" fill="black"/>
<path d="M58.5505 14.429L63.7888 22.3508H58.5505L55.4849 17.3665L54.0721 19.0014V22.3508H49.4337V3.31689H54.0721V13.8308L58.5239 8.27466H63.7621L58.5505 14.429Z" fill="black"/>
<path d="M28.5413 3.31836H33.1681V6.92686H28.5413V3.31836Z" fill="black"/>
<path d="M64.5254 22.3088V8.23267H69.137V22.3088H64.5254Z" fill="#0C831F"/>
<path d="M78.888 18.3343L79.8077 21.2986C79.39 21.6972 78.8615 22.0208 78.2216 22.2689C77.5907 22.517 76.9732 22.641 76.369 22.641C75.4982 22.641 74.7205 22.4505 74.0364 22.0693C73.3521 21.6796 72.8189 21.139 72.4368 20.4477C72.0547 19.7743 71.8638 18.9989 71.8638 18.1218V11.9145H70.0111V8.23249H71.8638V3.31836H76.2889V8.23249H79.2079V11.9145H76.2889V17.2712C76.2889 17.723 76.4088 18.0907 76.6488 18.3743C76.8886 18.6579 77.1953 18.7996 77.5685 18.7996C77.8351 18.7996 78.0838 18.7597 78.315 18.68C78.546 18.6003 78.7369 18.4851 78.888 18.3343Z" fill="#0C831F"/>
<path d="M64.4885 3.31836H69.1153V6.92686H64.4885V3.31836Z" fill="#0C831F"/>
</svg>
