<svg width="100" height="22" viewBox="0 0 100 22" fill="none" xmlns="http://www.w3.org/2000/svg">
<path d="M93.0398 17.5272C93.0398 16.1014 94.1836 14.9446 95.5917 14.9446C97.0006 14.9446 98.143 16.1014 98.143 17.5272C98.143 18.953 97.0006 20.1091 95.5917 20.1091C94.1836 20.1091 93.0398 18.953 93.0398 17.5272Z" fill="#86BC24"/>
<path d="M11.6521 10.6876C11.6521 9.05179 11.3397 7.8382 10.715 7.04757C10.0896 6.25769 9.1421 5.86312 7.86835 5.86312H6.51337V15.8663H7.55005C8.96487 15.8663 10.0017 15.4418 10.6618 14.5899C11.3212 13.7395 11.6521 12.4385 11.6521 10.6876ZM16.4843 10.5172C16.4843 13.4974 15.6927 15.7938 14.1095 17.4057C12.5263 19.0183 10.3007 19.8247 7.43193 19.8247H1.85754V1.9668H7.82104C10.5872 1.9668 12.7227 2.69988 14.2276 4.16531C15.7318 5.63148 16.4843 7.74779 16.4843 10.5172Z" fill="#0F0B0B"/>
<path d="M31.9253 19.8244H36.361V1.89185H31.9253V19.8244Z" fill="#0F0B0B"/>
<path d="M42.5923 13.1356C42.5923 14.279 42.74 15.151 43.0346 15.7504C43.33 16.3504 43.8247 16.6501 44.5203 16.6501C45.2085 16.6501 45.6951 16.3504 45.9787 15.7504C46.2622 15.151 46.4033 14.279 46.4033 13.1356C46.4033 11.9982 46.26 11.1403 45.9728 10.5612C45.6848 9.98056 45.1938 9.68986 44.4975 9.68986C43.8167 9.68986 43.33 9.97908 43.0346 10.5545C42.74 11.1306 42.5923 11.9908 42.5923 13.1356ZM50.918 13.1356C50.918 15.314 50.3538 17.0133 49.2225 18.2314C48.092 19.4502 46.5096 20.0599 44.4753 20.0599C42.5244 20.0599 40.9714 19.4367 39.8187 18.1902C38.6646 16.9438 38.0879 15.2594 38.0879 13.1356C38.0879 10.964 38.6529 9.27662 39.7841 8.07349C40.9153 6.87036 42.5014 6.2688 44.5439 6.2688C45.8059 6.2688 46.9224 6.54755 47.8898 7.10428C48.8578 7.66101 49.6052 8.45836 50.1301 9.49709C50.6559 10.5343 50.918 11.7479 50.918 13.1356Z" fill="#0F0B0B"/>
<path d="M52.6796 19.8245H57.116V12.9615V6.50415H52.6796V19.8245Z" fill="#0F0B0B"/>
<path d="M52.6794 4.89295H57.1159V1.89111H52.6794V4.89295Z" fill="#0F0B0B"/>
<path d="M66.104 16.4269C66.7028 16.4269 67.4161 16.273 68.2483 15.9674V19.3189C67.6501 19.5849 67.0816 19.7755 66.5411 19.8883C66.0006 20.0027 65.3662 20.0595 64.6404 20.0595C63.1509 20.0595 62.0773 19.6806 61.4178 18.9243C60.7614 18.1681 60.4321 17.0068 60.4321 15.4398V9.94871H58.8785V6.50521H60.4321V3.10356L64.9026 2.31665V6.50521H67.733V9.94871H64.9026V15.1334C64.9026 15.9957 65.3035 16.4269 66.104 16.4269Z" fill="#0F0B0B"/>
<path d="M76.3716 16.4269C76.9705 16.4269 77.6839 16.273 78.5161 15.9674V19.3189C77.9187 19.5849 77.3493 19.7755 76.8088 19.8883C76.2675 20.0027 75.6354 20.0595 74.908 20.0595C73.4187 20.0595 72.3451 19.6806 71.6871 18.9243C71.0292 18.1681 70.6999 17.0068 70.6999 15.4398V9.94871H69.1454V6.50521H70.6999V3.052L75.1695 2.31665V6.50521H78.0014V9.94871H75.1695V15.1334C75.1695 15.9957 75.5705 16.4269 76.3716 16.4269Z" fill="#0F0B0B"/>
<path d="M84.1137 11.5127C84.1743 10.7834 84.3804 10.2491 84.7318 9.90757C85.0849 9.56681 85.5205 9.39644 86.0418 9.39644C86.6104 9.39644 87.0623 9.58773 87.3975 9.97333C87.735 10.3567 87.9107 10.8701 87.9248 11.5127H84.1137ZM90.3697 7.83911C89.3152 6.79291 87.8191 6.26904 85.8838 6.26904C83.8494 6.26904 82.284 6.8706 81.1867 8.07373C80.0901 9.27686 79.5414 11.0031 79.5414 13.2524C79.5414 15.4308 80.1344 17.1107 81.3174 18.2899C82.501 19.4691 84.1632 20.0595 86.3039 20.0595C87.3318 20.0595 88.2165 19.9885 88.9579 19.8472C89.6948 19.7075 90.4081 19.4549 91.1 19.0902L90.4184 16.0884C89.9156 16.2961 89.4371 16.456 88.9851 16.5614C88.3324 16.7146 87.6162 16.7916 86.8364 16.7916C85.9813 16.7916 85.3063 16.5801 84.8116 16.1571C84.3169 15.7334 84.0532 15.149 84.023 14.4048H91.9521V12.3594C91.9521 10.3918 91.4249 8.88456 90.3697 7.83911Z" fill="#0F0B0B"/>
<path d="M22.3715 11.5127C22.432 10.7834 22.6381 10.2491 22.9895 9.90757C23.3418 9.56681 23.7782 9.39644 24.3003 9.39644C24.8675 9.39644 25.3193 9.58773 25.6553 9.97333C25.9928 10.3567 26.1678 10.8701 26.1833 11.5127H22.3715ZM28.6282 7.83911C27.573 6.79291 26.0776 6.26904 24.1416 6.26904C22.1064 6.26904 20.5416 6.8706 19.4451 8.07373C18.3485 9.27686 17.7992 11.0031 17.7992 13.2524C17.7992 15.4308 18.3914 17.1107 19.5759 18.2899C20.7588 19.4691 22.421 20.0595 24.5617 20.0595C25.5896 20.0595 26.4742 19.9885 27.2155 19.8472C27.9525 19.7075 28.6659 19.4549 29.3586 19.0902L28.6762 16.0884C28.1733 16.2961 27.6948 16.456 27.2437 16.5614C26.5894 16.7146 25.8738 16.7916 25.094 16.7916C24.2397 16.7916 23.5641 16.5801 23.0694 16.1571C22.5739 15.7334 22.311 15.149 22.2808 14.4048H30.2099V12.3594C30.2099 10.3918 29.6827 8.88456 28.6282 7.83911Z" fill="#0F0B0B"/>
</svg>
