<svg width="117" height="40" viewBox="0 0 117 40" fill="none" xmlns="http://www.w3.org/2000/svg">
<path d="M49.7895 20.5131C49.7895 26.0653 45.4923 30.1566 40.2187 30.1566C34.9451 30.1566 30.6479 26.0653 30.6479 20.5131C30.6479 14.9218 34.9451 10.8696 40.2187 10.8696C45.4923 10.8696 49.7895 14.9218 49.7895 20.5131ZM45.5999 20.5131C45.5999 17.0435 43.1093 14.6696 40.2187 14.6696C37.3281 14.6696 34.8376 17.0435 34.8376 20.5131C34.8376 23.9479 37.3281 26.3566 40.2187 26.3566C43.1093 26.3566 45.5999 23.9435 45.5999 20.5131Z" fill="#EA4335"/>
<path d="M70.4366 20.5131C70.4366 26.0653 66.1394 30.1566 60.8658 30.1566C55.5922 30.1566 51.295 26.0653 51.295 20.5131C51.295 14.9262 55.5922 10.8696 60.8658 10.8696C66.1394 10.8696 70.4366 14.9218 70.4366 20.5131ZM66.247 20.5131C66.247 17.0435 63.7564 14.6696 60.8658 14.6696C57.9752 14.6696 55.4847 17.0435 55.4847 20.5131C55.4847 23.9479 57.9752 26.3566 60.8658 26.3566C63.7564 26.3566 66.247 23.9435 66.247 20.5131Z" fill="#FBBC05"/>
<path d="M90.2233 11.4522V28.7653C90.2233 35.887 86.0681 38.7957 81.1558 38.7957C76.5317 38.7957 73.7487 35.6696 72.6991 33.1131L76.3468 31.5783C76.9963 33.1479 78.5879 35.0001 81.1515 35.0001C84.2959 35.0001 86.2445 33.0392 86.2445 29.3479V27.9609H86.0982C85.1605 29.1305 83.3539 30.1522 81.0741 30.1522C76.3038 30.1522 71.9335 25.9522 71.9335 20.5479C71.9335 15.1044 76.3038 10.8696 81.0741 10.8696C83.3496 10.8696 85.1562 11.8914 86.0982 13.0262H86.2445V11.4566H90.2233V11.4522ZM86.5413 20.5479C86.5413 17.1522 84.3002 14.6696 81.4483 14.6696C78.5577 14.6696 76.136 17.1522 76.136 20.5479C76.136 23.9088 78.5577 26.3566 81.4483 26.3566C84.3002 26.3566 86.5413 23.9088 86.5413 20.5479Z" fill="#4285F4"/>
<path d="M96.7831 1.30444V29.5653H92.6967V1.30444H96.7831Z" fill="#34A853"/>
<path d="M112.707 23.687L115.959 25.8783C114.909 27.4478 112.38 30.1522 108.01 30.1522C102.59 30.1522 98.5424 25.9174 98.5424 20.5087C98.5424 14.7739 102.624 10.8652 107.541 10.8652C112.492 10.8652 114.914 14.8478 115.705 17L116.14 18.0957L103.386 23.4348C104.362 25.3696 105.881 26.3565 108.01 26.3565C110.143 26.3565 111.623 25.2957 112.707 23.687ZM102.698 20.2174L111.223 16.6391C110.754 15.4348 109.343 14.5957 107.683 14.5957C105.554 14.5957 102.59 16.4957 102.698 20.2174Z" fill="#EA4335"/>
<path d="M15.1799 18.0043V13.913H28.8198C28.9532 14.6261 29.022 15.4696 29.022 16.3826C29.022 19.4522 28.1918 23.2478 25.5163 25.9522C22.9139 28.6913 19.5889 30.1522 15.1842 30.1522C7.01999 30.1522 0.154846 23.4304 0.154846 15.1783C0.154846 6.92608 7.01999 0.204346 15.1842 0.204346C19.7007 0.204346 22.9182 1.99565 25.3357 4.33043L22.4795 7.21739C20.746 5.57391 18.3974 4.29565 15.1799 4.29565C9.21805 4.29565 4.55525 9.15217 4.55525 15.1783C4.55525 21.2043 9.21805 26.0609 15.1799 26.0609C19.0469 26.0609 21.2493 24.4913 22.6601 23.0652C23.8043 21.9087 24.5571 20.2565 24.8539 18L15.1799 18.0043Z" fill="#4285F4"/>
</svg>
