<svg width="126" height="38" viewBox="0 0 126 38" fill="none" xmlns="http://www.w3.org/2000/svg">
<g clip-path="url(#clip0_2001_17787)">
<path d="M13.367 0H17.2038V0.706167H16.4811C16.3548 0.706167 16.1344 0.848667 15.8168 1.1305C15.4993 1.41233 15.3405 1.634 15.3405 1.77967V12.5463C15.3405 12.6952 15.4993 12.9105 15.8168 13.1955C16.1344 13.4805 16.3548 13.623 16.4811 13.623H17.2038V14.326H11.5426V13.6167H12.2653C12.3916 13.6167 12.6087 13.4742 12.9134 13.1892C13.218 12.9042 13.3703 12.6888 13.3703 12.54V2.11533L8.04938 14.5825L2.73497 1.9V12.5432C2.73497 12.692 2.88728 12.9073 3.18864 13.1923C3.49001 13.4773 3.71036 13.6198 3.83674 13.6198H4.55613V14.3228H0V13.6167H0.722629C0.874932 13.6167 1.10177 13.4742 1.40637 13.1892C1.71098 12.9042 1.86004 12.6888 1.86004 12.54V1.77967C1.86004 1.634 1.70774 1.4155 1.40637 1.1305C1.10501 0.8455 0.874932 0.706167 0.722629 0.706167H0V0H4.25152L8.65859 10.7255H8.77201L13.367 0ZM22.4825 12.8757C23.1291 12.9133 23.7736 12.7729 24.3426 12.4703C24.8146 12.1544 25.2042 11.7347 25.48 11.2448H26.0892C25.8185 12.1647 25.3004 12.9969 24.5888 13.6547C23.8083 14.2873 22.811 14.6065 21.7988 14.5477C21.1969 14.569 20.5983 14.4524 20.0508 14.2071C19.5033 13.9619 19.0221 13.5948 18.6458 13.1353C17.8563 12.1821 17.4393 10.9856 17.4695 9.75967C17.4343 9.10355 17.5334 8.44716 17.761 7.82893C17.9885 7.21069 18.34 6.64303 18.7948 6.15917C19.2017 5.73159 19.6955 5.39184 20.2447 5.16171C20.7938 4.93158 21.386 4.81615 21.9835 4.82283C22.6332 4.80828 23.2791 4.92246 23.8824 5.1585C24.43 5.38651 24.9315 5.70822 25.3633 6.1085L23.9796 8.23333L23.4093 8.26817C23.5388 7.6358 23.4997 6.98153 23.2959 6.36817C23.1748 6.08273 22.9593 5.84523 22.6837 5.69366C22.4082 5.5421 22.0886 5.48523 21.7761 5.53217C21.3687 5.50687 20.9617 5.58587 20.5951 5.76136C20.2285 5.93686 19.9152 6.20277 19.686 6.53283C19.1968 7.32698 18.959 8.24474 19.0022 9.17067C18.9749 10.1301 19.3054 11.0665 19.9323 11.8053C20.2473 12.16 20.6403 12.4405 21.082 12.6259C21.5236 12.8112 22.0024 12.8966 22.4825 12.8757ZM31.8994 14.3228H26.1637V13.6167H26.8961C27.0484 13.6167 27.2752 13.4742 27.5798 13.1892C27.8844 12.9042 28.0335 12.6888 28.0335 12.54V1.77967C28.0335 1.634 27.8844 1.4155 27.5798 1.1305C27.2752 0.8455 27.0387 0.706167 26.8961 0.706167H26.1637V0H31.8994V0.706167H31.1768C31.0245 0.706167 30.7976 0.848667 30.493 1.1305C30.1884 1.41233 30.0394 1.634 30.0394 1.77967V7.64433L35.2792 1.9285C35.3797 1.805 35.2792 1.57067 35.0135 1.2255C34.7478 0.880333 34.5307 0.706167 34.4043 0.706167H33.7011V0H39.0155V0.706167H38.2929C37.9359 0.826098 37.6082 1.01693 37.3305 1.26667C36.8217 1.64983 36.5203 1.9 36.4166 1.99183L32.8521 5.738L37.9785 12.388C38.2273 12.6713 38.5139 12.9205 38.8308 13.129C39.0853 13.3577 39.3919 13.5238 39.7252 13.6135H40.7881C41.0397 13.5625 41.2673 13.4324 41.4362 13.243C41.7148 12.9928 41.8542 12.7838 41.8542 12.6097V6.7545C41.8542 6.60567 41.7148 6.40617 41.4362 6.15917C41.2673 5.9698 41.0397 5.83966 40.7881 5.78867H40.2145V5.0825H43.5943V12.616C43.5943 12.7902 43.7401 12.9992 44.0318 13.2493C44.1995 13.4289 44.4167 13.5576 44.6572 13.6198H45.8367C45.9631 13.6198 46.1608 13.4963 46.4427 13.2493C46.7246 13.0023 46.8607 12.7902 46.8607 12.616V6.7545C46.8607 6.60567 46.7214 6.40617 46.4427 6.15917C46.164 5.91217 45.9631 5.78867 45.8367 5.78867H45.2275V5.0825H48.2282L48.6074 6.96667C49.1226 6.43499 49.6748 5.93875 50.26 5.4815C50.8544 5.04484 51.5844 4.82122 52.3274 4.84817C52.6764 4.84199 53.023 4.90471 53.3465 5.03258C53.67 5.16046 53.9638 5.35084 54.2102 5.59233C54.4695 5.84356 54.6725 6.14473 54.8064 6.47672C54.9403 6.8087 55.0021 7.16427 54.9879 7.52083V12.616C54.9879 12.7902 55.1272 12.9992 55.4059 13.2493C55.6846 13.4995 55.8855 13.6198 56.0119 13.6198H56.6211V14.3228H51.6469V13.6167H52.1719C52.4233 13.565 52.6507 13.435 52.82 13.2462C53.0987 12.996 53.238 12.787 53.238 12.6128V7.64433C53.2565 7.22865 53.1207 6.82043 52.8556 6.49483C52.7134 6.3406 52.537 6.22019 52.3399 6.1428C52.1427 6.06541 51.9301 6.0331 51.7182 6.04833C50.967 6.0707 50.2423 6.32451 49.6476 6.7735C48.9541 7.25483 48.6074 7.657 48.6074 7.98V12.616C48.6074 12.7902 48.7467 12.9992 49.0254 13.2493C49.1942 13.4387 49.4218 13.5688 49.6735 13.6198H50.2049V14.3228H36.6175L31.5203 7.163L30.0394 8.721V12.5432C30.0394 12.692 30.1884 12.9073 30.493 13.1923C30.7976 13.4773 31.0245 13.6198 31.1768 13.6198H31.8994V14.3228ZM36.987 30.4728L36.9416 30.4285C37.4244 30.8243 37.9137 31.2202 38.4063 31.616C38.8988 32.0118 39.4238 32.395 39.9812 32.7687H40.8529V33.5097H39.2585C38.6095 33.5204 37.9645 33.4075 37.3596 33.1772C36.7136 32.8946 36.1226 32.5046 35.613 32.0245C35.0382 32.5901 34.3452 33.0276 33.5812 33.307C32.6973 33.6074 31.7656 33.7511 30.83 33.7313C29.6408 33.7374 28.4897 33.3223 27.5895 32.5628C27.1237 32.1955 26.751 31.7281 26.5003 31.197C26.2496 30.6659 26.1278 30.0853 26.1443 29.5007C26.1347 28.631 26.3581 27.774 26.7924 27.0148C27.2137 26.2855 27.8041 25.663 28.5163 25.1972C28.1756 24.7744 27.8883 24.3129 27.6608 23.8228C27.4365 23.3076 27.326 22.7519 27.3368 22.192C27.3097 21.7557 27.3803 21.3188 27.5437 20.9119C27.7071 20.505 27.9594 20.1378 28.283 19.836C29.0067 19.2471 29.9319 18.9484 30.8722 19C31.4138 18.9822 31.9545 19.0572 32.4697 19.2217C32.8076 19.3575 33.1675 19.4336 33.5326 19.4465C33.673 19.4499 33.8133 19.4371 33.9506 19.4085C34.0656 19.3716 34.161 19.292 34.2163 19.1868H34.8644V22.5625H34.2163C34.1157 21.8654 33.7724 21.2235 33.2442 20.7448C32.9498 20.4012 32.5805 20.1262 32.1634 19.9399C31.7463 19.7537 31.2918 19.6608 30.8333 19.6682C30.1672 19.6324 29.509 19.8226 28.97 20.2065C28.7438 20.387 28.5641 20.6168 28.4454 20.8775C28.3266 21.1382 28.2721 21.4225 28.2862 21.7075C28.2824 22.2658 28.485 22.8066 28.8566 23.2307C29.2655 23.6965 29.7883 24.0538 30.3764 24.2693C31.3118 25.2616 32.3239 26.2569 33.4127 27.2555C34.5015 28.2541 35.5395 29.1882 36.5268 30.058C36.797 29.6346 36.9961 29.1717 37.1166 28.6868C37.2353 28.1672 37.2929 27.6359 37.2883 27.1035C37.3015 26.8176 37.2523 26.5322 37.1439 26.2663C37.0355 26.0004 36.8704 25.7601 36.6597 25.5613C36.1956 25.1613 35.5893 24.9554 34.9714 24.9882V24.2693H40.1821V24.9375H39.615C39.4886 24.9375 39.2391 25.1465 38.8729 25.5708C38.6 25.8205 38.4084 26.1432 38.322 26.4987V26.5367C38.2969 27.2494 38.1693 27.9551 37.9429 28.633C37.7251 29.2896 37.4025 29.9084 36.987 30.4665V30.4728ZM32.0128 32.6262C32.612 32.6341 33.2086 32.5464 33.7789 32.3665C34.2848 32.2006 34.7638 31.965 35.2015 31.6667L35.088 31.5938C34.0079 30.6523 32.945 29.6875 31.8994 28.6995C30.8538 27.7115 29.8406 26.6718 28.8598 25.5803C28.4977 25.9511 28.2029 26.3794 27.9881 26.847C27.7621 27.4134 27.6584 28.0193 27.6835 28.6267C27.6982 29.1577 27.8296 29.6795 28.0689 30.1565C28.3082 30.6335 28.6498 31.0546 29.0704 31.3912C29.8535 32.1542 30.9073 32.5931 32.0128 32.6167V32.6262ZM42.5314 2.8215H42.4926C42.1742 2.8243 41.8677 2.70358 41.6403 2.48583C41.5235 2.38297 41.4307 2.2568 41.368 2.11585C41.3054 1.9749 41.2745 1.82246 41.2774 1.66883V1.634C41.2681 1.47118 41.2959 1.30837 41.3586 1.15726C41.4214 1.00616 41.5176 0.870491 41.6403 0.76C41.8909 0.55711 42.206 0.44608 42.5314 0.44608C42.8568 0.44608 43.172 0.55711 43.4226 0.76C43.5453 0.870491 43.6415 1.00616 43.7043 1.15726C43.767 1.30837 43.7947 1.47118 43.7855 1.634H43.7466C43.7725 1.634 43.7855 1.634 43.7855 1.66883C43.7884 1.82246 43.7575 1.9749 43.6948 2.11585C43.6322 2.2568 43.5394 2.38297 43.4226 2.48583C43.2065 2.69888 42.9129 2.81958 42.606 2.8215H42.5314ZM52.1719 32.5438C53.2139 32.6025 54.2488 32.3436 55.1337 31.8028C55.8999 31.2392 56.5121 30.4995 56.916 29.6495H57.6807C57.2613 30.8549 56.4799 31.9088 55.4383 32.6737C54.3672 33.423 53.0739 33.8079 51.7571 33.7693C50.7975 33.803 49.8428 33.6206 48.9669 33.2362C48.0909 32.8518 47.3171 32.2758 46.7052 31.5527C45.4364 30.0735 44.7615 28.1939 44.8063 26.2643C44.7551 24.3868 45.3725 22.5501 46.5529 21.0678C47.1258 20.3628 47.8614 19.8004 48.6995 19.4266C49.5376 19.0529 50.4544 18.8785 51.3747 18.9177C52.0607 18.9024 52.7438 19.0097 53.3903 19.2343C53.9341 19.444 54.5135 19.5514 55.0981 19.551C55.2803 19.5597 55.4622 19.5272 55.6295 19.456C55.7706 19.3853 55.8987 19.2922 56.0086 19.1805H56.5401V24.2313H55.892C55.7824 23.2122 55.3739 22.2456 54.7157 21.4478C54.3642 20.9185 53.8788 20.4868 53.3066 20.1945C52.7344 19.9021 52.0947 19.759 51.4493 19.779C50.8989 19.7504 50.3484 19.8329 49.8322 20.0215C49.3159 20.21 48.8449 20.5004 48.4486 20.8747C47.6112 21.8596 47.1527 23.0997 47.1524 24.3802V24.3073C47.1265 24.5797 47.107 24.852 47.0941 25.1243C47.0941 25.3967 47.0746 25.6785 47.0746 25.9762C47.0746 26.3213 47.0746 26.676 47.1135 27.0338C47.1524 27.3917 47.1653 27.721 47.188 28.0187C47.2891 29.2227 47.8121 30.3557 48.6689 31.2265C49.1254 31.6741 49.6733 32.0228 50.2768 32.2498C50.8804 32.4768 51.5261 32.5769 52.1719 32.5438ZM64.1617 11.7262C64.1842 12.1126 64.1192 12.4991 63.9714 12.8582C63.8235 13.2173 63.5964 13.54 63.3062 13.8035C62.701 14.313 61.9203 14.5789 61.1221 14.5477C60.6009 14.563 60.0824 14.468 59.6023 14.269C59.2236 14.0887 58.8084 13.9934 58.3872 13.9903C58.2424 13.9766 58.097 14.0088 57.9724 14.0822L57.6678 14.3228H57.2271V11.058H57.7974C57.9032 11.6943 58.2157 12.2805 58.6885 12.73C58.989 13.074 59.3659 13.3463 59.7905 13.5263C60.215 13.7063 60.676 13.7892 61.1383 13.7687C61.6134 13.7928 62.0862 13.6899 62.5058 13.471C62.6675 13.3703 62.7986 13.2291 62.8852 13.0619C62.9719 12.8948 63.011 12.708 62.9984 12.521C63.0157 12.2982 62.9702 12.075 62.8668 11.8757C62.7634 11.6763 62.606 11.5085 62.4118 11.3905C62.0278 11.1597 61.6283 10.9545 61.2161 10.7762C60.8597 10.6305 60.5388 10.4943 60.244 10.3708C59.9491 10.2473 59.6153 10.1112 59.2362 9.96233C58.6996 9.7201 58.2113 9.38664 57.7941 8.9775C57.5995 8.77066 57.4489 8.5281 57.351 8.26391C57.2531 7.99972 57.2099 7.71915 57.2238 7.4385C57.2001 7.08658 57.2561 6.73388 57.3877 6.40549C57.5193 6.07709 57.7234 5.78108 57.9853 5.5385C58.4725 5.20097 59.0379 4.98695 59.6306 4.91565C60.2234 4.84435 60.825 4.918 61.3814 5.13C61.7067 5.28813 62.0647 5.37153 62.4281 5.37383C62.539 5.37736 62.6494 5.35794 62.7521 5.31683C62.846 5.27608 62.921 5.20273 62.9627 5.111H63.4553V7.961H62.885C62.7928 7.39808 62.5205 6.87816 62.1072 6.47583C61.8535 6.17256 61.5312 5.93093 61.1657 5.76993C60.8002 5.60894 60.4015 5.53297 60.0009 5.548C59.5616 5.51288 59.1239 5.63189 58.7663 5.88367C58.6381 5.98684 58.5356 6.11714 58.4666 6.26471C58.3975 6.41229 58.3637 6.57328 58.3677 6.7355C58.356 6.90611 58.3881 7.07688 58.4611 7.23229C58.5341 7.38769 58.6457 7.5228 58.7857 7.62533C59.1449 7.86907 59.5255 8.08102 59.9232 8.25867C60.2796 8.40433 60.6134 8.5405 60.9309 8.664L61.9744 9.0725C62.519 9.29614 63.02 9.61003 63.4553 10.0003C63.6955 10.2184 63.8845 10.4847 64.0093 10.781C64.134 11.0773 64.1916 11.3965 64.1779 11.7167L64.1617 11.7262ZM66.6472 25.308C67.1302 25.7687 67.5072 26.3248 67.753 26.9391C67.9989 27.5534 68.108 28.2118 68.073 28.8705C68.1074 29.532 67.9982 30.1931 67.7524 30.8104C67.5067 31.4277 67.13 31.9872 66.6472 32.452C65.7748 33.2988 64.5941 33.7726 63.3646 33.7693C62.1214 33.7783 60.9255 33.3044 60.0398 32.452C59.5576 31.9869 59.1815 31.4273 58.9363 30.81C58.6911 30.1928 58.5824 29.5318 58.6172 28.8705C58.5808 28.2416 58.677 27.612 58.8997 27.0209C59.1224 26.4297 59.467 25.8896 59.912 25.4339C60.3571 24.9782 60.8932 24.6166 61.487 24.3716C62.0809 24.1267 62.72 24.0035 63.3646 24.0097C64.5962 24.001 65.7817 24.4675 66.6634 25.308H66.6472ZM66.1903 30.4V30.4728C66.2162 30.2005 66.2324 29.9282 66.2454 29.6558C66.2583 29.3835 66.2648 29.1112 66.2648 28.8388C66.2648 28.5665 66.2648 28.3037 66.2454 28.044C66.2259 27.7843 66.2162 27.5405 66.1903 27.3188C66.1312 26.6414 65.844 26.0022 65.3737 25.5012C65.1056 25.2629 64.7906 25.0807 64.4479 24.9658C64.1051 24.8509 63.742 24.8057 63.3808 24.833C63.0271 24.8085 62.6722 24.8552 62.3377 24.9702C62.0033 25.0851 61.6966 25.2658 61.4365 25.5012C60.9712 25.9904 60.6842 26.6159 60.6199 27.2808V27.2333C60.5695 27.4905 60.5381 27.7508 60.5259 28.0123C60.5259 28.2847 60.5064 28.557 60.5064 28.8262C60.5064 29.0953 60.5064 29.3645 60.5259 29.6242C60.5372 29.868 60.5686 30.1105 60.6199 30.3493C60.695 31.0114 60.9806 31.6338 61.4365 32.129C61.6909 32.3746 61.9958 32.5645 62.331 32.6863C62.6661 32.808 63.024 32.8588 63.3808 32.8352C63.7469 32.8666 64.1156 32.8215 64.4625 32.7031C64.8095 32.5846 65.1267 32.3954 65.3931 32.148C65.8369 31.6596 66.1154 31.0491 66.1903 30.4ZM69.3044 14.5667C68.7052 14.5778 68.1114 14.4549 67.5683 14.2074C67.0252 13.9598 66.5472 13.5942 66.1708 13.1385C65.3498 12.1905 64.9108 10.9824 64.9362 9.74067C64.897 8.46764 65.344 7.22592 66.1903 6.25733C66.5659 5.80927 67.0424 5.4521 67.5826 5.2137C68.1228 4.9753 68.712 4.86212 69.3044 4.883C69.7641 4.85795 70.224 4.92983 70.6529 5.09374C71.0817 5.25765 71.4695 5.50977 71.7898 5.833C72.3847 6.45481 72.7299 7.26554 72.762 8.11617L72.8009 8.78433L66.4949 9.27833C66.5076 10.1678 66.8274 11.027 67.4022 11.7167C67.6911 12.0958 68.0702 12.4003 68.5066 12.6039C68.9431 12.8075 69.4238 12.9041 69.9071 12.8852C70.5598 12.921 71.21 12.7808 71.7866 12.4798C72.2562 12.1806 72.6417 11.7713 72.9078 11.2892H73.4781C73.2368 12.2043 72.7358 13.0341 72.0329 13.6832C71.2679 14.298 70.293 14.6069 69.3044 14.5477V14.5667ZM69.2655 5.586C68.8513 5.55222 68.4353 5.62507 68.0589 5.79731C67.6826 5.96954 67.3589 6.23515 67.1203 6.56767C66.6926 7.17674 66.4489 7.89113 66.4171 8.62917L71.1644 8.23333C71.2456 7.61242 71.1734 6.98152 70.9538 6.3935C70.7464 5.84461 70.1836 5.56911 69.2655 5.567V5.586ZM80.7336 32.8193C80.8859 32.8193 81.0933 32.6895 81.359 32.4298C81.6247 32.1702 81.7576 31.9675 81.7576 31.8187V26.752C81.7747 26.3566 81.6472 25.9682 81.3979 25.6563C81.2509 25.504 81.0703 25.3864 80.8699 25.3123C80.6694 25.2382 80.4544 25.2097 80.241 25.2288C79.5686 25.2506 78.9216 25.4851 78.3972 25.897C77.7772 26.3446 77.4672 26.7161 77.4672 27.0117V31.8345C77.4672 31.9833 77.6 32.186 77.8657 32.4457C78.1315 32.7053 78.3291 32.8352 78.4555 32.8352H79.0258V33.5413H74.1651V32.8352H74.6966C74.8489 32.8352 75.0562 32.7053 75.322 32.4457C75.5877 32.186 75.7206 31.9833 75.7206 31.8345V26.7678C75.7414 26.3572 75.6064 25.9535 75.3414 25.6342C75.1956 25.4848 75.0176 25.3689 74.8203 25.295C74.623 25.2211 74.4114 25.1909 74.2008 25.2067C73.5108 25.2288 72.8487 25.4776 72.3213 25.9128C71.7013 26.3815 71.3913 26.7773 71.3913 27.1003V31.8503C71.3913 31.9992 71.5241 32.2018 71.7898 32.4615C72.0555 32.7212 72.2662 32.851 72.4185 32.851H72.9499V33.5572H68.0892V32.851H68.6595C68.7859 32.851 68.9836 32.7212 69.246 32.4615C69.5085 32.2018 69.6446 31.9992 69.6446 31.8503V25.9382C69.6446 25.7925 69.5118 25.593 69.246 25.346C68.9803 25.099 68.7859 24.9755 68.6595 24.9755H68.0892V24.2693H71.0056L71.3848 26.0522C71.9421 25.4822 72.4487 25.0051 72.9046 24.6208C73.4601 24.2057 74.1511 24.002 74.8489 24.0477C75.4455 24.0359 76.0304 24.2113 76.5177 24.548C76.7602 24.7191 76.9634 24.938 77.1141 25.1905C77.2648 25.4431 77.3596 25.7236 77.3926 26.0142C77.9727 25.4695 78.5074 25.0103 78.987 24.6398C79.5362 24.2476 80.2064 24.0509 80.8859 24.0825C81.5738 24.066 82.2412 24.3125 82.7459 24.7697C83.0074 25.0233 83.2106 25.3284 83.3419 25.6648C83.4732 26.0011 83.5296 26.361 83.5074 26.7203V31.787C83.5074 31.9358 83.6403 32.1385 83.906 32.3982C84.1717 32.6578 84.3662 32.7877 84.4926 32.7877H85.0629V33.4938H80.2021V32.7877L80.7336 32.8193ZM74.3919 6.85267C74.2336 6.61038 74.0341 6.39621 73.8022 6.21933C73.4781 5.947 73.2643 5.81083 73.1541 5.81083H72.7361V5.0825H77.8625V5.78867H77.2565C77.1302 5.78867 76.9649 5.91217 76.764 6.15917C76.5941 6.33193 76.4871 6.55446 76.4594 6.7925L78.7277 11.3557L80.8178 6.82733C80.8189 6.70292 80.7942 6.57957 80.7452 6.46474C80.6962 6.3499 80.6239 6.24596 80.5327 6.15917C80.3166 5.91217 80.1449 5.78867 80.0174 5.78867H79.392V5.0825H83.2288V5.78867H82.8107C82.6844 5.78867 82.4867 5.9185 82.221 6.17817C82.0125 6.36339 81.8392 6.58316 81.709 6.82733L78.4685 13.5438L75.6817 18.7783L74.8553 18.3667L77.7394 13.281L74.3919 6.85267ZM91.5957 24.035C92.1253 24.0146 92.6518 24.1224 93.1284 24.349C93.605 24.5755 94.0169 24.9136 94.3274 25.3333C95.0216 26.3382 95.3628 27.5362 95.2996 28.747C95.3506 30.0215 94.9626 31.2759 94.1978 32.3095C93.8823 32.7504 93.4615 33.1094 92.972 33.3555C92.4824 33.6016 91.9388 33.7273 91.3883 33.7218C90.6921 33.7562 90.0004 33.5947 89.3954 33.2563C88.8603 32.9025 88.4228 32.4249 88.1219 31.8662V36.3185C88.1219 36.4927 88.2612 36.7017 88.5399 36.9518C88.8186 37.202 89.0228 37.3223 89.1491 37.3223H89.7616V38H84.7583V37.2938H85.3675C85.6129 37.2433 85.8335 37.1126 85.9929 36.9233C86.2043 36.7703 86.3471 36.5434 86.3915 36.29V25.9382C86.3915 25.7925 86.2586 25.593 85.9929 25.346C85.8335 25.1567 85.6129 25.026 85.3675 24.9755H84.7583V24.2313H87.8335L88.1381 26.163C88.4841 25.5117 88.9854 24.9513 89.5996 24.529C90.1984 24.1684 90.8926 23.9878 91.5957 24.0097V24.035ZM93.4946 30.2702V30.305L93.5692 29.564C93.595 29.3178 93.608 29.0705 93.6081 28.823C93.6085 28.606 93.5955 28.3893 93.5692 28.1738C93.5432 27.9617 93.5173 27.759 93.4946 27.5595C93.4324 26.91 93.1665 26.2951 92.7331 25.7988C92.5253 25.5859 92.2731 25.4192 91.9935 25.3099C91.714 25.2006 91.4136 25.1514 91.1129 25.1655C90.7625 25.1511 90.4128 25.2078 90.086 25.332C89.7592 25.4563 89.4622 25.6454 89.214 25.8875C88.7189 26.3964 88.3546 27.0128 88.1511 27.6862V30.0992C88.1472 30.4453 88.2159 30.7885 88.353 31.1077C88.4901 31.4268 88.6927 31.7152 88.9482 31.9548C89.2005 32.2078 89.5032 32.4074 89.8377 32.5414C90.1721 32.6754 90.5311 32.7409 90.8925 32.7338H90.9314C91.2682 32.759 91.6064 32.7104 91.9215 32.5915C92.2366 32.4726 92.5205 32.2865 92.7526 32.0467C93.1774 31.5313 93.4357 30.9041 93.4946 30.2448V30.2702ZM114.95 31.8282C114.95 31.977 115.089 32.1797 115.368 32.4393C115.647 32.699 115.848 32.8288 115.974 32.8288H116.544V33.535H111.57V32.8288H112.121C112.251 32.8288 112.445 32.699 112.73 32.4393C113.015 32.1797 113.148 31.977 113.148 31.8282V26.7932C113.162 26.3876 113.035 25.9894 112.789 25.6627C112.654 25.5029 112.481 25.3772 112.286 25.2962C112.091 25.2152 111.879 25.1812 111.667 25.1972C110.914 25.2212 110.188 25.481 109.597 25.9382C108.899 26.4364 108.551 26.8322 108.553 27.1257V31.8028C108.553 31.977 108.693 32.186 108.971 32.4362C109.14 32.6255 109.368 32.7557 109.619 32.8067H110.177V33.5128H102.114L101.849 31.5843C101.449 32.0973 101.005 32.5752 100.52 33.0125C100.027 33.4655 99.3722 33.7121 98.6956 33.6997C98.3768 33.7019 98.0608 33.6404 97.7671 33.519C97.4734 33.3975 97.2083 33.2187 96.9879 32.9935C96.7467 32.7549 96.5582 32.4704 96.4339 32.1578C96.3096 31.8452 96.2522 31.511 96.2653 31.1758C96.229 30.7823 96.3078 30.3868 96.4925 30.0353C96.6772 29.6838 96.9603 29.3908 97.3087 29.1903C97.9436 28.8312 98.6278 28.5625 99.3405 28.3923L101.81 27.9078L101.849 26.7963C101.877 26.2361 101.687 25.6861 101.317 25.2573C101.071 25.0426 100.781 24.8805 100.467 24.7813C100.153 24.6821 99.8212 24.6479 99.4928 24.681C99.1742 24.6436 98.8512 24.693 98.5595 24.8238C98.2679 24.9546 98.0189 25.1616 97.8401 25.422C97.698 25.7283 97.6327 26.0634 97.6496 26.3993C97.6665 26.7353 97.7652 27.0624 97.9373 27.3537H97.2536L95.9574 25.498C96.4765 24.9991 97.095 24.6098 97.7746 24.3543C98.4541 24.0988 99.1801 23.9826 99.9076 24.0128C100.837 23.9818 101.754 24.2353 102.529 24.738C102.875 24.9698 103.154 25.2841 103.34 25.6511C103.526 26.018 103.613 26.4253 103.592 26.8343V31.806C103.592 31.9548 103.731 32.1512 104.01 32.3982C104.289 32.6452 104.49 32.7718 104.616 32.7718H105.757C106.009 32.7207 106.237 32.5893 106.405 32.3982C106.683 32.1512 106.823 31.9548 106.823 31.806V25.9382C106.823 25.7925 106.683 25.593 106.405 25.346C106.236 25.1566 106.008 25.0265 105.757 24.9755H105.186V24.2313H108.187L108.566 26.163C109.074 25.6352 109.615 25.1392 110.186 24.6778C110.785 24.2348 111.523 24.0107 112.273 24.0445C112.621 24.0383 112.967 24.1008 113.29 24.2281C113.613 24.3554 113.906 24.545 114.153 24.7855C114.413 25.0367 114.617 25.3382 114.752 25.6709C114.886 26.0035 114.948 26.3598 114.934 26.7172L114.95 31.8282ZM101.849 28.538L99.5803 29.0953C99.0932 29.1727 98.6493 29.4148 98.3262 29.7793C98.0912 30.1119 97.9709 30.509 97.9827 30.913V30.9478C97.9798 31.1369 98.0153 31.3246 98.087 31.5001C98.1588 31.6757 98.2654 31.8356 98.4007 31.9707C98.5317 32.1081 98.6909 32.217 98.868 32.2901C99.045 32.3632 99.2358 32.399 99.428 32.395H99.4831C99.9918 32.375 100.477 32.1785 100.851 31.8408C101.236 31.5396 101.565 31.1753 101.823 30.7642L101.849 28.538ZM126 24.2693V24.9755H125.543C125.443 24.9755 125.258 25.1053 124.992 25.365C124.791 25.5528 124.607 25.7573 124.441 25.9762L121.253 32.7307L118.404 37.9272L117.607 37.5187L120.456 32.433L117.115 26.0142C116.955 25.7727 116.756 25.5587 116.525 25.3808C116.201 25.1085 116 24.9723 115.899 24.9723H115.442V24.2693H120.569V24.9755H119.999C119.872 24.9755 119.7 25.099 119.487 25.346C119.309 25.5154 119.194 25.7386 119.163 25.9793L121.431 30.5457L123.531 25.9667C123.531 25.8475 123.506 25.7296 123.457 25.6206C123.408 25.5115 123.336 25.4137 123.246 25.3333C123.032 25.0863 122.86 24.9628 122.734 24.9628H122.128V24.2693H126Z" fill="#051C2C"/>
</g>
<defs>
<clipPath id="clip0_2001_17787">
<rect width="126" height="38" fill="white"/>
</clipPath>
</defs>
</svg>
