<svg width="120" height="33" viewBox="0 0 120 33" fill="none" xmlns="http://www.w3.org/2000/svg">
<g clip-path="url(#clip0_2001_17649)">
<path d="M4.7694 18.9906C4.58587 18.637 4.43294 18.3458 4.27999 18.0442C4.14745 17.7841 4.0149 17.5138 3.91294 17.2433C3.66824 16.5777 3.76 16.2657 4.34117 15.8913C5.82981 14.924 7.30822 13.9567 8.80701 13.0103C11.6313 11.2422 14.4658 9.49493 17.3003 7.73724C17.4736 7.63323 17.6367 7.50844 17.7591 7.31082C17.6265 7.36285 17.4838 7.41483 17.3512 7.47725C13.2117 9.57814 9.06192 11.679 4.92234 13.78C4.62666 13.9256 4.33098 14.0712 4.0251 14.1856C3.40314 14.4248 3.08707 14.3104 2.76079 13.7383C2.63844 13.5407 2.53649 13.3223 2.43453 13.1143C2.18982 12.5735 2.2408 12.3135 2.69962 11.9287C3.2706 11.4606 3.84157 10.9718 4.44313 10.5454C6.51293 9.07891 8.58269 7.62284 10.6729 6.19801C11.1317 5.87554 11.6619 5.64674 12.1615 5.40755C12.4062 5.29315 12.6713 5.18914 12.9568 5.35552C13.1403 5.75075 12.8344 6.04197 12.6815 6.48918C13.2524 6.19801 13.7317 5.95876 14.2108 5.71956C16.9536 4.30507 19.7371 2.94261 22.5919 1.75698C24.2029 1.08092 25.8547 0.519311 27.588 0.217691C28.0876 0.134476 28.5464 0.196901 28.995 0.456886C29.3519 0.664896 29.515 0.956121 29.4742 1.38254C29.3927 2.20418 29.0868 2.94261 28.679 3.64986C28.5668 3.84747 28.4342 4.04509 28.2813 4.29468C28.5362 4.42992 28.7503 4.57551 28.9746 4.66912C29.2295 4.77312 29.3315 4.94995 29.3315 5.20993C29.3315 5.72996 29.3315 6.23959 29.0868 6.70764C29.0256 6.83243 28.9441 6.95723 28.9135 7.08202C28.6484 8.27811 27.8225 8.99575 26.8742 9.61978C26.6704 9.75497 26.4664 9.90055 26.2931 10.1502C26.6805 10.0878 27.068 10.0254 27.4555 9.97337C27.7817 9.9214 28.108 9.82779 28.4342 9.83818C28.7299 9.83818 29.0358 9.94219 29.3213 10.0462C29.5354 10.119 29.7292 10.275 29.9432 10.3686C30.3715 10.5558 30.5754 10.899 30.555 11.3462C30.5346 11.7622 30.4734 12.1679 30.3715 12.5735C29.9534 14.2584 29.1174 15.6729 27.8633 16.8793C25.1002 19.5314 22.1943 22.0276 19.2477 24.4613C18.9826 24.6797 18.7277 24.9189 18.4422 25.1686C20.1755 24.9813 21.8477 24.7941 23.5198 24.6069C26.8437 24.8253 27.9755 25.0021 28.4648 25.4181C28.3527 25.8342 28.006 26.0318 27.6797 26.219C26.2523 27.051 24.8147 27.8727 23.3668 28.6839C22.6532 29.0791 21.9496 29.5055 21.1951 29.8071C20.1144 30.2336 19.003 30.5768 17.8814 30.9096C16.2297 31.3985 14.5575 31.8561 12.8956 32.3137C11.6619 32.6569 11.0298 32.4801 10.0815 31.2632C9.56153 30.5976 9.16389 29.8488 8.88855 29.0375C8.65408 28.3719 8.69485 27.7374 9.13326 27.1862C9.67364 26.5206 10.2038 25.8238 10.8462 25.2622C12.8956 23.4524 14.9959 21.7051 17.0759 19.9371C17.8508 19.2818 18.6359 18.6474 19.3598 17.909C19.2375 17.961 19.1049 18.013 18.9826 18.0754C13.854 20.6443 8.72542 23.2132 3.59687 25.7822C3.2706 25.9486 2.92393 26.0838 2.58746 26.2294C2.29178 26.3542 2.0063 26.3126 1.77179 26.1046C1.53728 25.8966 1.31297 25.6782 1.11924 25.4389C0.65023 24.8253 0.354548 24.1181 0.0894522 23.39C-0.114467 22.8284 0.0282766 22.3916 0.538075 21.9964C1.03768 21.6219 1.54747 21.2683 2.05728 20.9043C2.94432 20.2699 3.83138 19.6458 4.7796 18.9802" fill="white"/>
<path d="M42.5169 15.2784C41.9082 15.4984 39.2452 15.5204 38.506 15.3224V1.90344C38.7669 1.87044 38.9625 1.82649 39.1582 1.82649C40.0278 1.82649 40.8973 1.82649 41.7561 1.82649C42.2887 1.82649 42.343 1.90344 42.3213 2.46444C42.3104 2.73938 42.2995 3.00338 42.2778 3.39933C43.0387 2.58538 43.7778 1.93644 44.7887 1.68349C45.7996 1.44149 46.7887 1.46349 47.7779 1.79349C48.7996 2.14544 49.4409 2.91538 49.9409 3.93827C50.1584 3.65233 50.3214 3.42133 50.4844 3.20138C51.8758 1.39749 54.6258 0.935548 56.5063 2.20044C57.4734 2.83838 57.9195 3.81733 58.137 4.90622C58.2564 5.52216 58.3326 6.14911 58.3326 6.77605C58.3649 9.47083 58.3649 12.1657 58.3759 14.8495C58.3759 14.9924 58.3649 15.1354 58.354 15.2674C57.8214 15.4874 55.3217 15.5314 54.4084 15.3334C54.3975 15.0914 54.3649 14.8274 54.3649 14.5634C54.3758 12.0337 54.3975 9.51483 54.3975 6.98505C54.3975 6.53411 54.3432 6.06111 54.2236 5.63216C53.8867 4.40027 52.5715 4.14727 51.7127 4.89522C51.2127 5.33516 50.9084 5.89616 50.7018 6.51211C50.4627 7.21605 50.3975 7.942 50.3975 8.66794C50.4083 10.6478 50.4301 12.6386 50.4409 14.6184C50.4409 14.8384 50.4409 15.0694 50.4409 15.2674C49.854 15.4984 47.2453 15.5204 46.4735 15.3114C46.4626 15.0474 46.43 14.7614 46.43 14.4754C46.4409 11.9897 46.4735 9.50383 46.4735 7.01805C46.4735 6.56711 46.43 6.09411 46.3105 5.65416C45.9735 4.36727 44.6148 4.13627 43.767 4.88422C43.267 5.32416 42.9734 5.88516 42.7669 6.51211C42.5278 7.23805 42.4626 7.975 42.4734 8.73394C42.4843 10.6918 42.506 12.6606 42.5169 14.6184C42.5169 14.8384 42.5169 15.0694 42.5169 15.2674" fill="white"/>
<path d="M56.446 32.0101C55.8159 32.1971 53.0439 32.1861 52.4352 32.0101C52.4243 31.8121 52.4026 31.5922 52.4026 31.3612C52.4026 27.3575 52.4243 23.3428 52.4352 19.3281C52.4352 19.2071 52.4352 19.0752 52.4352 18.9542C52.4352 18.6792 52.5656 18.5142 52.8483 18.5142C53.8592 18.5142 54.8701 18.5142 55.8811 18.5142C56.1419 18.5142 56.2614 18.6792 56.2504 18.9212C56.2504 19.2731 56.2181 19.6251 56.1962 20.043C56.5112 19.7901 56.783 19.5591 57.0658 19.3501C58.6855 18.1622 60.4679 17.8762 62.3485 18.5692C63.9896 19.1741 64.7726 20.505 65.0548 22.1769C65.1638 22.7928 65.1748 23.4198 65.1852 24.0467C65.2181 26.4226 65.24 28.8094 65.2614 31.1852C65.2614 31.2732 65.2614 31.3502 65.2614 31.4382C65.2614 32.1091 65.229 32.1421 64.5551 32.1421C63.6636 32.1421 62.783 32.1531 61.8921 32.1421C61.2614 32.1421 61.2395 32.1201 61.2395 31.4492C61.2504 29.1283 61.2833 26.8186 61.2723 24.4977C61.2723 23.8158 61.2181 23.1118 61.0438 22.4629C60.7721 21.4619 59.8049 20.978 58.794 21.22C57.6093 21.5059 56.9896 22.3529 56.6636 23.4418C56.4789 24.0577 56.4027 24.7177 56.3918 25.3557C56.3699 27.3355 56.3918 29.3263 56.4027 31.3062C56.4027 31.5482 56.4027 31.7901 56.4027 32.0101" fill="white"/>
<path d="M98.9414 32.0646C98.7025 32.0976 98.4959 32.1306 98.3003 32.1416C97.4088 32.1416 96.5173 32.1526 95.6373 32.1416C95.0066 32.1416 94.9847 32.1086 94.9847 31.4596C94.9956 29.6448 95.0285 27.8299 95.0285 26.0041C95.0285 25.1681 95.0175 24.3322 94.9743 23.4963C94.9633 23.1443 94.8981 22.7923 94.8 22.4513C94.5069 21.4944 93.5611 20.9774 92.5934 21.1864C91.6477 21.3954 91.0285 22.0004 90.6263 22.8473C90.2674 23.6172 90.126 24.4312 90.126 25.2781C90.126 27.1589 90.137 29.0398 90.148 30.9207C90.148 31.1077 90.148 31.2946 90.148 31.4816C90.148 32.0866 90.1151 32.1086 89.5173 32.1196C88.6044 32.1196 87.7019 32.1196 86.7891 32.1196C86.5934 32.1196 86.3869 32.0756 86.148 32.0536C86.137 31.8006 86.1151 31.5916 86.1151 31.3936C86.1151 27.3459 86.137 23.2873 86.148 19.2396C86.148 19.1296 86.148 19.0306 86.148 18.9316C86.148 18.6567 86.2893 18.5027 86.5606 18.5027C87.5502 18.5027 88.5501 18.5027 89.5392 18.5027C89.8543 18.5027 89.9847 18.6787 89.9737 18.9756C89.9633 19.3056 89.9414 19.6356 89.9195 20.0206C90.2241 19.7786 90.4849 19.5586 90.7677 19.3606C92.5392 18.0957 94.4417 17.8097 96.4417 18.7117C97.4521 19.1626 98.0937 19.9986 98.4849 21.0324C98.7567 21.7584 98.8981 22.5283 98.9091 23.2983C98.9414 25.9931 98.9523 28.6878 98.9743 31.3826C98.9743 31.5916 98.9523 31.7896 98.9304 32.0426" fill="white"/>
<path d="M85.8411 15.587C85.6022 15.62 85.3956 15.653 85.2 15.664C84.3085 15.664 83.417 15.675 82.5364 15.664C81.9063 15.664 81.8844 15.631 81.8844 14.9821C81.8953 13.1672 81.9282 11.3523 81.9282 9.52649C81.9282 8.69055 81.9173 7.8546 81.8734 7.01866C81.8625 6.66671 81.7973 6.31471 81.6997 5.97377C81.406 5.01682 80.4603 4.49988 79.4932 4.70888C78.5474 4.91782 77.9277 5.52277 77.5255 6.36971C77.1671 7.13966 77.0258 7.9536 77.0258 8.80055C77.0258 10.6814 77.0367 12.5622 77.0477 14.4431C77.0477 14.6301 77.0477 14.8171 77.0477 15.0041C77.0477 15.609 77.0148 15.631 76.417 15.642C75.5041 15.642 74.6016 15.642 73.6888 15.642C73.4932 15.642 73.2866 15.598 73.0471 15.576C73.0367 15.323 73.0148 15.1141 73.0148 14.9161C73.0148 10.8684 73.0367 6.80971 73.0471 2.76199C73.0471 2.65204 73.0471 2.55304 73.0471 2.45404C73.0471 2.17904 73.1885 2.0251 73.4603 2.0251C74.4493 2.0251 75.4499 2.0251 76.4389 2.0251C76.754 2.0251 76.8844 2.20104 76.8734 2.49804C76.8625 2.82799 76.8411 3.15799 76.8192 3.54293C77.1233 3.30099 77.3847 3.08099 77.6669 2.88299C79.4389 1.6181 81.3408 1.33215 83.3408 2.23404C84.3518 2.68504 84.9934 3.52093 85.3847 4.55488C85.6564 5.28082 85.7978 6.05077 85.8082 6.82071C85.8411 9.51549 85.8521 12.2103 85.8734 14.9051C85.8734 15.1141 85.8521 15.3121 85.8301 15.565" fill="white"/>
<path d="M42.3211 18.5115C42.3211 18.9515 42.3428 19.2814 42.3428 19.6114C42.3211 22.0972 42.2993 24.583 42.2776 27.0578C42.2776 27.6957 42.4189 28.2897 42.8537 28.7956C43.3645 29.3896 43.995 29.5986 44.745 29.4446C45.5929 29.2686 46.1798 28.7406 46.5929 27.9927C47.0385 27.1898 47.1907 26.3099 47.1907 25.3969C47.1907 23.5601 47.169 21.7232 47.169 19.8864C47.169 19.4574 47.1907 19.0175 47.2016 18.5775C47.4081 18.5445 47.5494 18.5115 47.6798 18.5115C48.6473 18.5115 49.6255 18.5115 50.5929 18.5115C51.1582 18.5115 51.2125 18.5665 51.2125 19.1824C51.2125 21.8992 51.1799 24.605 51.1799 27.3218C51.1799 28.6747 51.1908 30.0386 51.1799 31.3915C51.1799 32.0844 51.1256 32.1394 50.4299 32.1394C49.6255 32.1394 48.8211 32.1394 48.0168 32.1394C47.3755 32.1394 47.3429 32.0954 47.3538 31.4685C47.3538 31.2045 47.3538 30.9405 47.3538 30.7095C46.6798 31.1385 46.0603 31.6664 45.3538 31.9634C43.6472 32.6784 41.9297 32.6894 40.3319 31.6114C39.5058 31.0505 38.9732 30.2585 38.7341 29.3016C38.5602 28.6197 38.4297 27.9047 38.408 27.2118C38.3427 24.649 38.3427 22.0752 38.3101 19.5124C38.3101 19.3254 38.3101 19.1384 38.3101 18.9515C38.321 18.6875 38.4514 18.5225 38.7341 18.5115C39.8862 18.5115 41.0385 18.5115 42.3102 18.5115" fill="white"/>
<path d="M78.2241 18.2047C79.7786 18.2047 81.0937 18.4796 82.3003 19.2276C83.7463 20.1185 84.5611 21.4604 84.9419 23.0883C85.2789 24.5072 85.2789 25.9371 84.9742 27.378C84.572 29.2478 83.6049 30.7217 81.92 31.6456C81.0937 32.0966 80.2027 32.3495 79.257 32.4265C77.8548 32.5475 76.4849 32.4375 75.1808 31.8876C73.7025 31.2606 72.6153 30.2047 72.0175 28.7088C71.1479 26.531 71.1479 24.2982 71.9852 22.1093C72.6044 20.5144 73.7134 19.4036 75.3003 18.7546C76.3003 18.3476 77.3331 18.2157 78.2241 18.2267M81.0614 25.3541C81.1046 24.8261 80.8005 22.9013 80.583 22.2963C80.3441 21.6364 79.8329 21.2184 79.1589 21.0095C77.6263 20.5255 76.2241 21.2624 75.7567 22.8463C75.583 23.4622 75.4959 24.1112 75.4526 24.7491C75.3764 25.7721 75.4197 26.795 75.7244 27.7849C75.931 28.4778 76.2679 29.0938 76.931 29.4568C78.5611 30.3477 80.3983 29.5667 80.8438 27.7519C81.0394 26.971 81.1046 25.3431 81.0614 25.3321" fill="white"/>
<path d="M102.421 1.81115C103.976 1.81115 105.291 2.07939 106.498 2.80913C107.943 3.67835 108.758 4.98751 109.139 6.57569C109.476 7.95998 109.476 9.355 109.172 10.7607C108.769 12.585 107.802 14.023 106.117 14.9244C105.291 15.3644 104.4 15.6111 103.454 15.6863C102.052 15.8043 100.682 15.697 99.3781 15.1605C97.8997 14.5488 96.8126 13.5186 96.2148 12.0592C95.3452 9.93449 95.3452 7.7561 96.1825 5.62061C96.8016 4.06461 97.9107 2.98083 99.4975 2.34767C100.498 1.95063 101.53 1.82188 102.421 1.8326M105.259 8.78625C105.302 8.27118 104.998 6.39326 104.78 5.80305C104.541 5.15922 104.03 4.75139 103.356 4.54751C101.824 4.07539 100.421 4.79435 99.954 6.33958C99.7803 6.94056 99.6931 7.57366 99.6499 8.19604C99.5737 9.19402 99.617 10.192 99.9216 11.1578C100.128 11.8339 100.465 12.4348 101.128 12.7889C102.758 13.6581 104.596 12.8962 105.041 11.1256C105.237 10.3637 105.302 8.77553 105.259 8.7648" fill="white"/>
<path d="M88.1874 4.71878C87.7743 4.70778 87.4044 4.69678 87.046 4.67478C86.5786 4.64178 86.5025 4.57583 86.4915 4.11383C86.4806 3.55289 86.4806 2.98094 86.4915 2.42C86.5025 1.881 86.5677 1.815 87.1216 1.815C88.8937 1.815 90.6762 1.815 92.4482 1.815C93.2307 1.815 94.0132 1.815 94.8066 1.815C95.3178 1.815 95.3611 1.881 95.3721 2.398C95.3721 2.93694 95.3721 3.48689 95.3721 4.02583C95.3721 4.59778 95.3178 4.65278 94.72 4.66378C94.057 4.67478 93.394 4.66378 92.7414 4.66378C92.5786 4.66378 92.4153 4.67478 92.1978 4.68578C92.1764 4.88378 92.1545 5.05978 92.1545 5.23578C92.1545 7.19361 92.1545 9.16245 92.1655 11.1203C92.1655 12.4182 92.709 12.9022 93.9918 12.7812C94.4044 12.7482 94.8066 12.6712 95.2526 12.6052C95.2959 12.7592 95.3611 12.8912 95.3611 13.0231C95.3721 13.5621 95.3611 14.1121 95.3611 14.651C95.3611 14.97 95.2416 15.168 94.9479 15.267C93.6652 15.685 92.3721 15.8389 91.057 15.454C89.3934 14.959 88.4263 13.7601 88.263 11.9452C88.1874 11.0983 88.2307 10.2403 88.2307 9.38245C88.2307 8.05156 88.2417 6.70961 88.2526 5.37872C88.2526 5.18078 88.2307 4.97178 88.2088 4.70778" fill="white"/>
<path d="M113.95 3.93696C114.124 3.79396 114.189 3.74996 114.233 3.69496C115.179 2.57307 116.396 1.97912 117.82 1.80312C118.233 1.74812 118.635 1.72612 119.048 1.72612C119.298 1.72612 119.57 1.82512 119.581 2.14412C119.635 2.99101 119.624 3.83796 119.548 4.7069C118.95 4.7509 118.418 4.7729 117.885 4.8389C115.505 5.14685 114.092 6.76374 114.07 9.20557C114.048 10.9984 114.07 12.7912 114.07 14.5841C114.07 15.4091 114.07 15.4311 113.244 15.4421C112.461 15.4421 111.678 15.4421 110.896 15.4421C110.092 15.4311 110.092 15.4201 110.102 14.5731C110.124 13.2862 110.168 11.9884 110.168 10.6904C110.168 8.06163 110.124 5.43285 110.102 2.80407C110.102 2.66107 110.092 2.50707 110.102 2.36407C110.124 1.92412 110.189 1.83612 110.602 1.82512C111.591 1.81412 112.58 1.80312 113.57 1.82512C113.993 1.82512 114.07 1.92412 114.059 2.36407C114.048 2.84807 113.993 3.32101 113.961 3.93696" fill="white"/>
<path d="M66.406 32.1064V31.4025C66.406 27.3327 66.406 23.2631 66.406 19.2044C66.406 18.5665 66.4499 18.5115 67.069 18.5115C67.9825 18.5115 68.8844 18.5115 69.7978 18.5115C70.3737 18.5115 70.4389 18.5775 70.4389 19.1604C70.428 20.8103 70.3847 22.4602 70.3847 24.11C70.3847 26.4199 70.428 28.7406 70.4389 31.0505C70.4389 32.0844 70.6022 32.1504 69.3627 32.1394C68.6564 32.1394 67.9606 32.1394 67.2543 32.1394C67.0148 32.1394 66.7649 32.1174 66.417 32.0954" fill="white"/>
<path d="M62.4203 10.1885C62.8767 11.8463 64.1156 12.6752 66.1359 12.6752C67.4362 12.6752 68.4203 12.2343 69.0877 11.3525L71.829 12.9397C70.5288 14.8268 68.6137 15.7704 66.0833 15.7704C63.9046 15.7704 62.1567 15.109 60.8389 13.7863C59.5211 12.4636 58.8619 10.7969 58.8619 8.78642C58.8619 6.79355 59.5123 5.13574 60.812 3.81304C62.1123 2.47269 63.7819 1.80252 65.8197 1.80252C67.7523 1.80252 69.3425 2.47269 70.5901 3.81304C71.8553 5.15339 72.4877 6.8112 72.4877 8.78642C72.4877 9.22735 72.4438 9.69469 72.3562 10.1885H62.4203ZM62.3671 7.54309H69.0877C68.8948 6.64362 68.4904 5.97344 67.8756 5.53256C67.2783 5.09163 66.5929 4.87119 65.8197 4.87119C64.9063 4.87119 64.1507 5.10928 63.5534 5.58547C62.9562 6.044 62.5605 6.69653 62.3671 7.54309Z" fill="white"/>
</g>
<defs>
<clipPath id="clip0_2001_17649">
<rect width="120" height="33" fill="white"/>
</clipPath>
</defs>
</svg>
